#!OML:ASF F:\VICON\USERDATA\INSTALL\Justin_Nancy\Justin_Nancy.ASF
:FULLY-SPECIFIED
:DEGREES
84
root 13.7023 15.6129 -1.20166 -4.62229 -26.2411 9.57293
lowerback 15.3678 0.731593 -5.90906
upperback 2.58099 -0.151745 -1.69769
thorax -5.85899 0.00825922 1.57429
lowerneck -19.9769 -8.4223 -12.5563
upperneck 13.1002 -10.2369 12.3477
head 8.67721 -4.31803 4.80739
rclavicle -4.96962e-015 2.70347e-014
rhumerus -49.3888 12.7368 -100.762
rradius 110.288
rwrist -16.4229
rhand -10.2046 19.1177
rfingers 7.12502
rthumb 15.7866 -10.2586
lclavicle -4.96962e-015 2.70347e-014
lhumerus -49.0348 -12.6258 98.8728
lradius 115.971
lwrist 26.7147
lhand -10.1969 9.94092
lfingers 7.12502
lthumb 15.7941 39.3166
rfemur -35.5763 -13.5272 13.5036
rtibia 93.283
rfoot -10.0943 -2.67311
rtoes 1.59697
lfemur -13.1025 0.954905 -5.16778
ltibia 38.9193
lfoot -20.3395 -2.59734
ltoes -31.1936
85
root 13.5842 15.6227 -1.00442 -4.52129 -27.7648 8.92366
lowerback 16.0027 0.456483 -5.47433
upperback 2.49466 -0.475256 -1.41536
thorax -6.27747 -0.144364 1.69672
lowerneck -20.4271 -8.47245 -12.2516
upperneck 13.6011 -10.2793 11.81
head 8.87786 -4.35196 4.55803
rclavicle -2.08724e-014 2.54444e-014
rhumerus -50.0998 13.1765 -101.478
rradius 110.715
rwrist -16.6005
rhand -9.46126 19.1771
rfingers 7.12502
rthumb 16.5024 -10.1411
lclavicle -2.08724e-014 2.54444e-014
lhumerus -48.4687 -12.8564 99.3496
lradius 116.024
lwrist 27.1734
lhand -12.2392 8.72098
lfingers 7.12502
lthumb 13.8264 38.2415
rfemur -37.2393 -13.048 15.5771
rtibia 92.949
rfoot -10.8473 -3.37279
rtoes 1.42271
lfemur -11.2378 1.06377 -4.38003
ltibia 38.5317
lfoot -20.6377 -1.57112
ltoes -31.013
86
root 13.4738 15.6452 -0.802371 -4.58941 -28.9543 9.20904
lowerback 16.7 0.273334 -5.68241
upperback 2.38556 -0.808462 -1.37989
thorax -6.75012 -0.287996 1.92825
lowerneck -21.5914 -8.72481 -12.04
upperneck 14.1932 -10.5655 11.5888
head 9.29127 -4.44741 4.37813
rclavicle 7.55382e-014 5.1684e-015
rhumerus -50.4081 13.4516 -101.855
rradius 111.124
rwrist -17.1062
rhand -8.81088 19.1735
rfingers 7.12502
rthumb 17.1285 -10.0915
lclavicle 7.55382e-014 5.1684e-015
lhumerus -47.5431 -13.2549 99.5447
lradius 116.108
lwrist 27.1007
lhand -12.1281 9.05112
lfingers 7.12502
lthumb 13.9335 38.5643
rfemur -39.0006 -13.0398 16.5024
rtibia 92.4526
rfoot -12.0368 -3.22681
rtoes 1.00153
lfemur -9.38394 0.610939 -4.79411
ltibia 37.6014
lfoot -20.5263 -0.00199694
ltoes -30.6214
87
root 13.3528 15.6651 -0.605804 -5.02646 -30.0116 10.1735
lowerback 16.7334 -0.740304 -7.12192
upperback 1.60225 -2.39638 -0.832162
thorax -7.41196 -0.967745 3.68615
lowerneck -18.492 -7.6398 -13.8302
upperneck 13.5113 -8.95891 12.0071
head 8.42786 -3.867 5.13049
rclavicle -8.38871e-014 2.98177e-014
rhumerus -53.5266 16.6436 -102.844
rradius 111.999
rwrist -17.7389
rhand -8.88425 19.4512
rfingers 7.12502
rthumb 17.0579 -9.81993
lclavicle -8.38871e-014 2.98177e-014
lhumerus -48.3088 -10.2535 100.233
lradius 116.675
lwrist 27.0515
lhand -12.9408 8.96068
lfingers 7.12502
lthumb 13.1503 38.526
rfemur -40.7382 -13.1244 16.8363
rtibia 91.6818
rfoot -13.4578 -2.60675
rtoes -0.323068
lfemur -7.4934 0.490767 -5.80063
ltibia 36.5437
lfoot -20.2948 1.80727
ltoes -32.1706
88
root 13.2668 15.6942 -0.415621 -7.73576 -29.1052 16.2284
lowerback 17.1337 -0.587617 -10.9067
upperback 2.08844 -3.12881 -3.19085
thorax -6.96539 -1.29108 3.42387
lowerneck -21.1614 -8.53527 -11.5996
upperneck 14.2826 -10.5027 11.598
head 9.217 -4.40922 4.33153
rclavicle 2.25621e-014 3.93594e-014
rhumerus -52.7106 14.8391 -103.564
rradius 112.977
rwrist -18.0253
rhand -9.05516 19.2504
rfingers 7.12502
rthumb 16.8933 -10.0348
lclavicle 2.25621e-014 3.93594e-014
lhumerus -46.6634 -13.9649 99.7913
lradius 116.824
lwrist 30.0343
lhand -16.252 7.48082
lfingers 7.12502
lthumb 9.95701 37.2253
rfemur -42.7671 -15.9666 11.2393
rtibia 91.1406
rfoot -14.8571 -0.0851304
rtoes -2.2797
lfemur -6.07055 -1.616 -12.5048
ltibia 34.983
lfoot -19.3971 4.71893
ltoes -34.9448
89
root 13.072 15.7353 -0.280279 -5.17056 -31.0202 12.1672
lowerback 16.7143 -1.30919 -8.01985
upperback 1.70515 -3.40404 -1.95218
thorax -7.19749 -1.45985 3.20021
lowerneck -20.5391 -8.40185 -11.977
upperneck 14.2805 -10.3304 11.8489
head 9.12431 -4.34835 4.52276
rclavicle -8.79622e-015 1.23246e-014
rhumerus -54.3336 16.0248 -104.339
rradius 113.915
rwrist -18.3529
rhand -8.87091 19.16
rfingers 7.12502
rthumb 17.0707 -10.11
lclavicle -8.79622e-015 1.23246e-014
lhumerus -46.4526 -12.9496 99.2898
lradius 117.238
lwrist 28.6125
lhand -13.3015 9.33093
lfingers 7.12502
lthumb 12.8025 38.9184
rfemur -44.8165 -13.8727 18.1187
rtibia 89.2608
rfoot -15.2617 -2.09801
rtoes -4.93889
lfemur -5.12729 -0.994261 -7.81779
ltibia 34.1831
lfoot -19.1259 4.29453
ltoes -37.946
90
root 12.9103 15.8511 0.0415205 -5.28848 -34.6734 12.0793
lowerback 15.3041 -0.919386 -6.77648
upperback 1.52828 -2.54928 -1.98616
thorax -6.75588 -1.09691 2.24146
lowerneck -18.7474 -8.60426 -13.3755
upperneck 13.8184 -10.5675 12.712
head 8.82158 -4.52447 5.04668
rclavicle 7.15625e-015 0
rhumerus -56.0244 16.0387 -104.403
rradius 114.362
rwrist -17.759
rhand -8.17998 20.0655
rfingers 7.12502
rthumb 17.7357 -9.14563
lclavicle 7.15625e-015 0
lhumerus -47.2648 -12.7729 99.9472
lradius 117.717
lwrist 27.7027
lhand -11.7205 9.74908
lfingers 7.12502
lthumb 14.3263 39.2348
rfemur -45.4817 -11.4449 19.5574
rtibia 87.0961
rfoot -15.9271 -1.48389
rtoes -8.92468
lfemur -1.88397 -2.64752 -8.91438
ltibia 33.2214
lfoot -18.3921 8.29432
ltoes -37.9824
91
root 12.7708 15.849 0.220077 -4.77836 -35.9638 12.3313
lowerback 15.1302 -1.24632 -7.06173
upperback 0.967265 -3.02348 -1.75132
thorax -7.19657 -1.28464 2.74977
lowerneck -18.3251 -8.67188 -13.9227
upperneck 13.8241 -10.6149 12.9308
head 8.80175 -4.57226 5.21405
rclavicle 6.5102e-014 3.49861e-014
rhumerus -57.145 16.6676 -104.437
rradius 114.535
rwrist -17.2109
rhand -7.18669 20.5638
rfingers 7.12502
rthumb 18.6913 -8.55817
lclavicle 6.5102e-014 3.49861e-014
lhumerus -47.6437 -12.3514 100.367
lradius 118.105
lwrist 27.8674
lhand -11.9054 9.14464
lfingers 7.12502
lthumb 14.1482 38.6429
rfemur -47.7515 -10.8035 21.1605
rtibia 85.4005
rfoot -16.1948 -1.67503
rtoes -11.2677
lfemur -1.44874 -0.437899 -8.4401
ltibia 32.9506
lfoot -16.9005 6.26672
ltoes -37.4792
92
root 12.6058 15.8984 0.431009 -5.25252 -37.4817 13.6194
lowerback 15.0109 -1.48477 -7.99856
upperback 0.62653 -3.51646 -1.8418
thorax -7.40488 -1.47754 3.27648
lowerneck -18.5878 -8.61386 -13.7004
upperneck 14.0804 -10.521 12.6172
head 8.88743 -4.53371 5.07987
rclavicle -3.3197e-014 1.74931e-014
rhumerus -58.0224 17.3237 -104.618
rradius 114.837
rwrist -16.8226
rhand -6.32487 20.5218
rfingers 7.12502
rthumb 19.52 -8.51836
lclavicle -3.3197e-014 1.74931e-014
lhumerus -47.613 -11.8155 100.244
lradius 118.265
lwrist 27.9647
lhand -11.6726 8.63641
lfingers 7.12502
lthumb 14.3725 38.1189
rfemur -49.0161 -10.198 21.5756
rtibia 83.3508
rfoot -16.6854 -1.26484
rtoes -10.9172
lfemur -0.0582291 -0.0811615 -9.54655
ltibia 32.2489
lfoot -14.7736 6.62704
ltoes -34.9849
